<?xml version="1.0" encoding="utf-8"?>
<!-- Generator: Adobe Illustrator 17.1.0, SVG Export Plug-In . SVG Version: 6.00 Build 0)  -->
<!DOCTYPE svg PUBLIC "-//W3C//DTD SVG 1.1//EN" "http://www.w3.org/Graphics/SVG/1.1/DTD/svg11.dtd">
<svg version="1.1" id="Layer_1" xmlns="http://www.w3.org/2000/svg" xmlns:xlink="http://www.w3.org/1999/xlink" x="0px" y="0px"
	 viewBox="210 137 147 57" enable-background="new 210 137 147 57" xml:space="preserve">
<text transform="matrix(1 0 0 1 224.0507 179.3974)" fill="#111820" font-family="'LucidaHandwriting-Italic'" font-size="27.8182">Jewel</text>
<polygon fill="#A4DAE7" stroke="#FFFFFF" stroke-width="0.5" stroke-linejoin="round" stroke-miterlimit="10" points="
	322.157,179.197 348.3,161.641 335.109,158.374 "/>
<polygon fill="#A4DAE7" stroke="#FFFFFF" stroke-width="0.5" stroke-linejoin="round" stroke-miterlimit="10" points="
	308.173,148.096 322.157,179.197 321.283,153.912 "/>
<polygon fill="#A4DAE7" stroke="#FFFFFF" stroke-width="0.5" stroke-linejoin="round" stroke-miterlimit="10" points="
	321.283,153.912 335.109,158.374 322.157,179.197 "/>
<path fill="#A4DAE7" stroke="#000000" stroke-width="0.5" stroke-linejoin="round" stroke-miterlimit="10" d="M250.904,158.946"/>
<polygon fill="#A4DAE7" stroke="#FFFFFF" stroke-width="0.5" stroke-linejoin="round" stroke-miterlimit="10" points="
	321.283,153.912 308.173,148.096 318.071,142.988 325.503,146.239 "/>
<polygon fill="#A4DAE7" stroke="#FFFFFF" stroke-width="0.5" stroke-linejoin="round" stroke-miterlimit="10" points="
	335.109,158.374 348.3,161.641 343.807,151.675 336.527,149.961 "/>
<polygon fill="#A4DAE7" stroke="#FFFFFF" stroke-width="0.5" stroke-linejoin="round" stroke-miterlimit="10" points="
	325.503,146.239 336.527,149.961 335.109,158.374 321.283,153.912 "/>
<line fill="none" stroke="#FFFFFF" stroke-width="0.5" stroke-linejoin="round" stroke-miterlimit="10" x1="318.071" y1="142.988" x2="315.437" y2="151.319"/>
<line fill="none" stroke="#FFFFFF" stroke-width="0.5" stroke-linejoin="round" stroke-miterlimit="10" x1="315.437" y1="151.319" x2="325.503" y2="146.239"/>
<line fill="none" stroke="#FFFFFF" stroke-width="0.5" stroke-linejoin="round" stroke-miterlimit="10" x1="315.437" y1="151.319" x2="322.157" y2="179.197"/>
<line fill="none" stroke="#FFFFFF" stroke-width="0.5" stroke-linejoin="round" stroke-miterlimit="10" x1="325.503" y1="146.239" x2="328.227" y2="156.051"/>
<line fill="none" stroke="#FFFFFF" stroke-width="0.5" stroke-linejoin="round" stroke-miterlimit="10" x1="328.227" y1="156.051" x2="336.527" y2="149.961"/>
<line fill="none" stroke="#FFFFFF" stroke-width="0.5" stroke-linejoin="round" stroke-miterlimit="10" x1="336.527" y1="149.961" x2="341.049" y2="159.846"/>
<line fill="none" stroke="#FFFFFF" stroke-width="0.5" stroke-linejoin="round" stroke-miterlimit="10" x1="341.049" y1="159.846" x2="343.807" y2="151.675"/>
<line fill="none" stroke="#FFFFFF" stroke-width="0.5" stroke-linejoin="round" stroke-miterlimit="10" x1="341.049" y1="159.846" x2="322.157" y2="179.197"/>
<line fill="none" stroke="#FFFFFF" stroke-miterlimit="10" x1="328.227" y1="156.051" x2="322.157" y2="179.197"/>
</svg>
